<svg xmlns="http://www.w3.org/2000/svg" xmlns:xlink="http://www.w3.org/1999/xlink" viewBox="0 0 1024 1024"><defs><path d="M768 0c141.38 0 256 114.62 256 256v512c0 141.38-114.62 256-256 256H256C114.62 1024 0 909.38 0 768V256C0 114.62 114.62 0 256 0h512z" id="a"/><path d="M406.39 704.18c-43.13 22.36-94.62-8.94-94.62-57.52v-28.09-213.15-28.08c0-48.58 51.49-79.88 94.62-57.52 27.6 14.31 15.79 8.19 43.39 22.5l189.23 98.11c27.6 14.32 15.79 8.19 43.39 22.5 39.77 20.63 39.77 77.51 0 98.13-27.6 14.31-15.79 8.19-43.39 22.5l-189.23 98.12c-27.6 14.31-15.79 8.19-43.39 22.5z" id="d"/></defs><use xlink:href="#a" fill="#ff235b"/><filter id="b" x="-117" y="-117" width="1264" height="1268" filterUnits="userSpaceOnUse" primitiveUnits="userSpaceOnUse"><feFlood/><feComposite in2="SourceAlpha" operator="out"/><feGaussianBlur stdDeviation="7.07"/><feOffset dx="-6" dy="-10" result="afterOffset"/><feFlood flood-color="#2e0109" flood-opacity=".09"/><feComposite in2="afterOffset" operator="in"/><feMorphology operator="dilate" radius="2"/><feComposite in2="SourceAlpha" operator="in"/></filter><path d="M768 0c141.38 0 256 114.62 256 256v512c0 141.38-114.62 256-256 256H256C114.62 1024 0 909.38 0 768V256C0 114.62 114.62 0 256 0h512z" filter="url(#b)"/><g><filter id="c" x="197.77" y="198.46" width="635.45" height="634.07" filterUnits="userSpaceOnUse" primitiveUnits="userSpaceOnUse"><feFlood/><feComposite in2="SourceAlpha" operator="in"/><feGaussianBlur stdDeviation="7.07"/><feOffset dx="7" dy="7" result="afterOffset"/><feFlood flood-color="#2e0109" flood-opacity=".12"/><feComposite in2="afterOffset" operator="in"/><feMorphology operator="dilate" radius="2"/><feComposite in2="SourceAlpha" operator="out"/></filter><path d="M406.39 704.18c-43.13 22.36-94.62-8.94-94.62-57.52v-28.09-213.15-28.08c0-48.58 51.49-79.88 94.62-57.52 27.6 14.31 15.79 8.19 43.39 22.5l189.23 98.11c27.6 14.32 15.79 8.19 43.39 22.5 39.77 20.63 39.77 77.51 0 98.13-27.6 14.31-15.79 8.19-43.39 22.5l-189.23 98.12c-27.6 14.31-15.79 8.19-43.39 22.5z" fill="#fff" filter="url(#c)"/><use xlink:href="#d" fill="#f8f8f2"/><g><filter id="e" x="193.77" y="194.46" width="642.45" height="645.07" filterUnits="userSpaceOnUse" primitiveUnits="userSpaceOnUse"><feFlood/><feComposite in2="SourceAlpha" operator="out"/><feGaussianBlur stdDeviation="7.07"/><feOffset dx="-6" dy="-10" result="afterOffset"/><feFlood flood-color="#bac6c8" flood-opacity=".54"/><feComposite in2="afterOffset" operator="in"/><feMorphology operator="dilate" radius="3"/><feComposite in2="SourceAlpha" operator="in"/></filter><path d="M406.39 704.18c-43.13 22.36-94.62-8.94-94.62-57.52v-28.09-213.15-28.08c0-48.58 51.49-79.88 94.62-57.52 27.6 14.31 15.79 8.19 43.39 22.5l189.23 98.11c27.6 14.32 15.79 8.19 43.39 22.5 39.77 20.63 39.77 77.51 0 98.13-27.6 14.31-15.79 8.19-43.39 22.5l-189.23 98.12c-27.6 14.31-15.79 8.19-43.39 22.5z" fill="#fff" filter="url(#e)"/></g></g></svg>