<svg viewBox="0 0 613.201 194.601" xmlns="http://www.w3.org/2000/svg"><path d="M0 142.2V63.4a6.176 6.176 0 012.286-4.848A9.837 9.837 0 013.6 57.6a14.069 14.069 0 014.064-1.641Q9.978 55.4 12.8 55.4a17.382 17.382 0 013.783.392A12.667 12.667 0 0120.9 57.6a8.318 8.318 0 011.879 1.678A6.364 6.364 0 0124.2 63.4v6a30.713 30.713 0 015.083-6.419A41.239 41.239 0 0134.2 58.9a24.608 24.608 0 019.239-3.968A35.13 35.13 0 0150.8 54.2q8.6 0 15.2 5.6t9.8 14.4a43.758 43.758 0 015.055-7.849A32.1 32.1 0 0189.1 59.1q8.1-4.9 16.7-4.9 9.2 0 17.3 4.7a34.267 34.267 0 0110.825 10.03 42.514 42.514 0 012.375 3.77 38.575 38.575 0 014.115 11.428q.985 4.959.985 10.672v47.4a5.061 5.061 0 01-.891 2.813q-.534.814-1.388 1.594a13.804 13.804 0 01-1.521 1.193 14.705 14.705 0 01-5.981 2.346 19.664 19.664 0 01-3.219.254q-5.2 0-9-2.6-2.134-1.46-3.07-3.046a4.964 4.964 0 01-.73-2.554V94.8a25.847 25.847 0 00-.351-4.382q-.547-3.18-1.949-5.618-2.3-4-6.1-6.1a16.786 16.786 0 00-4.828-1.804A15.071 15.071 0 0099.4 76.6q-4 0-7.5 2.1a16.299 16.299 0 00-4.442 3.974A20.648 20.648 0 0086 84.8a16.246 16.246 0 00-1.94 5.07q-.46 2.193-.46 4.73v47.8q0 3.512-2.866 5.416a9.272 9.272 0 01-1.234.684 20.796 20.796 0 01-8.451 1.896 24.008 24.008 0 01-.449.004q-4.4 0-8.6-1.9a8.558 8.558 0 01-2.123-1.33q-2.069-1.809-2.077-4.747a8.403 8.403 0 010-.023V94.8q0-5.6-2.3-9.6a17.398 17.398 0 00-3.722-4.562A16.066 16.066 0 0049.5 79q-3.7-2.2-7.9-2.2-4 0-7.6 2-3.6 2-5.9 6-2.075 3.61-2.278 8.848A29.818 29.818 0 0025.8 94.8v47.4a5.061 5.061 0 01-.891 2.813q-.534.814-1.388 1.594A13.804 13.804 0 0122 147.8a14.705 14.705 0 01-5.981 2.346 19.664 19.664 0 01-3.219.254 19.804 19.804 0 01-3.994-.381q-2.564-.528-4.566-1.787a12.086 12.086 0 01-.64-.432 12.738 12.738 0 01-1.658-1.409Q0 144.403 0 142.2zm185.6 1.2l-34.4-73.6a10.074 10.074 0 01-.561-1.59 7.29 7.29 0 01-.239-1.81 7.84 7.84 0 011.556-4.658A11.339 11.339 0 01153.3 60.2a22.125 22.125 0 015.917-4.057 25.555 25.555 0 01.983-.443 23.844 23.844 0 013.268-1.131Q165.635 54 167.6 54q2.4 0 4.5 1a5.396 5.396 0 012.739 2.963 7.267 7.267 0 01.161.437l24 59.8 19.2-59.8a7.588 7.588 0 011-1.747 5.786 5.786 0 012-1.653 9.631 9.631 0 012.25-.808A8.167 8.167 0 01225.2 54a13.354 13.354 0 012.419.239q1.213.225 2.574.659a31.047 31.047 0 012.207.802q4.2 1.7 7.3 4.6a11.053 11.053 0 011.859 2.224A7.961 7.961 0 01242.8 66.8q0 1.449-.388 2.509a4.766 4.766 0 01-.212.491L213 144.4q-3.6 9-7 17.9a75.841 75.841 0 01-6.948 13.88 69.322 69.322 0 01-1.552 2.32 36.916 36.916 0 01-12.463 11.139 43.195 43.195 0 01-1.037.561 34.883 34.883 0 01-8.142 2.969q-3.76.895-8.155 1.23a72.375 72.375 0 01-5.503.201q-5 0-8.4-1.9-3.4-1.9-3.4-9.1 0-4.284 1.422-7.43a13.445 13.445 0 01.078-.17q1.5-3.2 5.1-3.2 2.786 0 6.31-.805a45.685 45.685 0 001.59-.395 24.796 24.796 0 005.077-2.005A33.526 33.526 0 00174 167.1a25.367 25.367 0 005.549-5.517 32.236 32.236 0 002.251-3.483 26.4 26.4 0 002.303-5.619q.797-2.762 1.206-6.019a52.777 52.777 0 00.291-3.062zm266.6-7v5.8a5.728 5.728 0 01-.986 3.161q-.562.867-1.445 1.695a13.308 13.308 0 01-.869.744 11.905 11.905 0 01-5.271 2.334 16.472 16.472 0 01-3.029.266 18.517 18.517 0 01-4.09-.429 13.291 13.291 0 01-4.91-2.171 12.738 12.738 0 01-1.658-1.409Q428 144.403 428 142.2V8a6.176 6.176 0 012.286-4.848A9.837 9.837 0 01431.6 2.2q3.6-2.2 9-2.2 5.064 0 8.656 1.799A13.971 13.971 0 01450 2.2a9.619 9.619 0 011.919 1.427A5.909 5.909 0 01453.8 8v61.4a28.221 28.221 0 014.676-6.177A38.753 38.753 0 01463.6 58.9a25.241 25.241 0 0111.631-4.441 32.769 32.769 0 014.169-.259q9.8 0 17.9 5.5a39.318 39.318 0 0112.578 14.093 46.056 46.056 0 01.322.607 42.785 42.785 0 014.743 17.974A50.799 50.799 0 01515 94.8v16.4q0 10.6-4.8 20a43.141 43.141 0 01-8.776 11.865 40.259 40.259 0 01-4.024 3.335 29.941 29.941 0 01-11.103 5.115 28.777 28.777 0 01-6.297.685q-9.4 0-17-4.8a37.849 37.849 0 01-5.266-3.963q-2.8-2.546-4.602-5.409a21.937 21.937 0 01-.932-1.628zM322 111.6v-48a4.962 4.962 0 01.901-2.79q.532-.798 1.379-1.563A13.984 13.984 0 01325.9 58a15.508 15.508 0 017.273-2.516A19.5 19.5 0 01335 55.4q5.2 0 9 2.6 2.134 1.461 3.07 3.047a4.964 4.964 0 01.73 2.553v48q0 4.6 2.4 8.6t6.4 6.7q4 2.7 8.8 2.7 5 0 8.9-2.6 3.9-2.6 6.3-6.8a18.366 18.366 0 001.973-4.923A16.046 16.046 0 00383 111.6V63.4a5.261 5.261 0 011.234-3.347q.96-1.203 2.666-2.253a16.27 16.27 0 017.516-2.352 19.921 19.921 0 011.384-.048 22.916 22.916 0 013.885.31q3.209.553 5.515 2.09a11.001 11.001 0 011.74 1.414q.93.943 1.395 1.99a5.352 5.352 0 01.465 2.196v48.2q0 10.8-5.9 20.1t-15.8 14.9q-9.9 5.6-21.5 5.6-12 0-21.9-5.7-9.9-5.7-15.8-15t-5.9-19.9zm206-.4v-17q0-10.8 5.9-19.9 5.9-9.1 15.8-14.6a44.134 44.134 0 0119.739-5.447 52.687 52.687 0 012.361-.053 45.35 45.35 0 0115.109 2.477A42.123 42.123 0 01592.3 59q9.3 4.8 15.1 13.2a32.823 32.823 0 015.679 16.421 41.055 41.055 0 01.121 3.179q0 7.243-1.986 11.011a9.384 9.384 0 01-.814 1.289 12.419 12.419 0 01-3.454 3.176 11.512 11.512 0 01-3.646 1.424q-4.3.9-8.9.9h-40.6v3a18.409 18.409 0 001.335 7.117 17.21 17.21 0 005.165 6.783 22.822 22.822 0 009.509 4.524q3.41.776 7.391.776a36.092 36.092 0 004.641-.281q3.609-.469 6.359-1.719a126.043 126.043 0 003.621-1.711q1.634-.807 3.055-1.578a69.496 69.496 0 00.924-.511 16.31 16.31 0 012.344-1.097q1.37-.505 2.659-.647a9.092 9.092 0 01.997-.056q3 0 5.2 2t3.4 4.7a17.599 17.599 0 01.683 1.774q.289.901.417 1.709a7.818 7.818 0 01.1 1.217 6.434 6.434 0 01-.656 2.733q-1.023 2.191-3.644 4.567a25.092 25.092 0 01-4.088 2.971q-2.138 1.266-4.772 2.368a53.66 53.66 0 01-3.34 1.261 47.194 47.194 0 01-8.043 1.938q-3.997.619-8.534.736a82.999 82.999 0 01-2.123.026 67.263 67.263 0 01-13.178-1.235A52.06 52.06 0 01551.3 147.1a42.815 42.815 0 01-11.789-8.015 39.038 39.038 0 01-5.311-6.385 37.048 37.048 0 01-6.09-18.31 45.867 45.867 0 01-.11-3.19zm-229.4 39.2h-7.8a66.553 66.553 0 01-10.42-.761q-5.439-.864-9.81-2.709a29.351 29.351 0 01-7.27-4.33q-8.331-6.84-9.356-20.602A53.844 53.844 0 01253.8 118V21q0-3.415 3.779-5.57a13.412 13.412 0 01.421-.23 19.072 19.072 0 015.734-1.963A17.416 17.416 0 01266.6 13q4.8 0 8.9 2.2a10.575 10.575 0 011.936 1.308Q279.6 18.385 279.6 21v34.4h23.6a5.561 5.561 0 012.493.546q1.151.567 1.996 1.725a7.505 7.505 0 01.411.629q1.7 2.9 1.7 6.5a13.104 13.104 0 01-.749 4.473 12.122 12.122 0 01-.951 2.027q-1.7 2.9-4.9 2.9h-23.6V118a21.215 21.215 0 00.177 2.842q.437 3.224 1.958 4.974a5.867 5.867 0 00.365.384q2.5 2.4 8.7 2.4h7.8q4.217 0 6.789 1.928A8.212 8.212 0 01306.9 132a12.663 12.663 0 012.067 3.666 11.148 11.148 0 01.633 3.734q0 4.2-2.7 7.6a8.578 8.578 0 01-4.614 2.952q-1.445.392-3.183.441a17.809 17.809 0 01-.503.007zm190.6-39.2V94.8q0-4.6-2.3-8.6t-6.3-6.7q-4-2.7-9-2.7a16.802 16.802 0 00-6.63 1.397 20.542 20.542 0 00-1.67.803q-4.1 2.2-6.8 6.2a15.647 15.647 0 00-2.474 6.497 20.654 20.654 0 00-.226 3.103v20q0 1.615 1.564 4.207a26.551 26.551 0 00.836 1.293 23.316 23.316 0 003.45 3.945 30.32 30.32 0 003.05 2.455q4.1 2.9 9.1 2.9 4.8 0 8.8-2.7 4-2.7 6.3-6.9t2.3-8.8zm64.6-22.4v5.6H583a16.546 16.546 0 001.569-.068q1.559-.15 2.501-.622a3.179 3.179 0 00.63-.41q1.3-1.1 1.3-4.3a15.017 15.017 0 00-.985-5.483A14.063 14.063 0 00586.6 80.8q-2.4-3.6-6.4-5.6-4-2-8.8-2-4.6 0-8.6 1.9t-6.5 5.4q-2.5 3.5-2.5 8.3z" vector-effect="non-scaling-stroke" fill-rule="evenodd" fill="#FFCB23"/></svg>